<svg width="68" height="68" viewBox="0 0 68 68" fill="none" xmlns="http://www.w3.org/2000/svg">
<path d="M0 58.5589C0 63.3467 3.92567 67.2272 8.76801 67.2272H59.2317C64.0749 67.2272 68 63.3462 68 58.5589V8.66864C68 3.88053 64.0743 0 59.232 0H8.76828C3.92514 0 0 3.88106 0 8.66838V58.5586V58.5589Z" fill="#563D7C"/>
<path d="M28.1982 29.737V20.2167H36.6746C37.4821 20.2167 38.2603 20.2832 39.0099 20.4163C39.7595 20.5492 40.4228 20.7866 40.9995 21.1288C41.5759 21.4709 42.0373 21.946 42.3834 22.5539C42.7292 23.1621 42.9024 23.9413 42.9024 24.8911C42.9024 26.6015 42.3834 27.8368 41.3453 28.5968C40.3075 29.357 38.9812 29.737 37.3665 29.737H28.1982ZM19.1449 13.2616V53.9656H39.0965C40.9418 53.9656 42.739 53.7376 44.4882 53.2815C46.2373 52.8254 47.7941 52.1224 49.1589 51.1722C50.5234 50.2221 51.6096 48.9963 52.4168 47.4952C53.2243 45.9939 53.6278 44.2171 53.6278 42.1648C53.6278 39.6183 53.003 37.4427 51.7538 35.6375C50.5043 33.8321 48.6109 32.5684 46.0737 31.8462C47.919 30.9723 49.3127 29.851 50.2546 28.4828C51.1963 27.1146 51.6672 25.4045 51.6672 23.352C51.6672 21.4518 51.3501 19.8556 50.7157 18.5634C50.0814 17.2713 49.1876 16.2356 48.0343 15.4565C46.8812 14.6773 45.4973 14.1166 43.8825 13.7747C42.2681 13.4326 40.4804 13.2616 38.5199 13.2616H19.1449ZM28.1982 47.0105V35.8368H38.0585C40.019 35.8368 41.5953 36.2832 42.7871 37.1766C43.9787 38.0698 44.5748 39.5614 44.5748 41.6517C44.5748 42.7161 44.392 43.59 44.0268 44.2741C43.6615 44.9582 43.1715 45.4999 42.5563 45.8988C41.9414 46.298 41.23 46.5829 40.4228 46.7542C39.6153 46.9248 38.7698 47.0105 37.8855 47.0105H28.1982Z" fill="white"/>
</svg>
