<svg width="72" height="84" viewBox="0 0 72 84" fill="none" xmlns="http://www.w3.org/2000/svg">
<path d="M71.0841 62.9997C71.649 61.9851 72 60.8421 72 59.8155V24.1839C72 23.1574 71.6493 22.0145 71.0841 21L36 42L71.0841 62.9997Z" fill="#7F3A86"/>
<path d="M39.1185 83.2299L68.8832 65.4141C69.7406 64.9008 70.52 64.0146 71.0849 63L36.0009 42L0.916992 63C1.48195 64.0146 2.26147 64.9011 3.11866 65.4141L32.8833 83.2299C34.5978 84.2565 37.404 84.2565 39.1185 83.2299Z" fill="#662579"/>
<path d="M71.0841 20.9999C70.5192 19.9851 69.7395 19.0989 68.8824 18.5856L39.1176 0.76986C37.4031 -0.25662 34.5969 -0.25662 32.8824 0.76986L3.11766 18.5856C1.40283 19.6119 0 22.1313 0 24.1839V59.8158C0 60.8421 0.350819 61.9854 0.915989 63L36 42L71.0841 20.9999Z" fill="#9A5196"/>
<path d="M36.1155 66C22.8183 66 12 55.2336 12 42C12 28.7664 22.8183 18 36.1155 18C44.5374 18 52.4022 22.4271 56.757 29.5854L46.4295 35.7795C44.2476 32.208 40.3197 30 36.1155 30C29.4666 30 24.0579 35.3832 24.0579 42C24.0579 48.6168 29.4666 54 36.1155 54C40.3086 54 44.2263 51.8043 46.4121 48.2496L56.7615 54.4077C52.4076 61.5702 44.5401 66 36.1155 66Z" fill="white"/>
<path fill-rule="evenodd" clip-rule="evenodd" d="M63.0003 33V35.9922H56.9997V33H54.0003V35.9922H51V39H54.0003V44.9844H51V48H54.0003V51H56.9997L57 48H63.0003V51H65.9997V48H69V45H65.9997V39H69V35.9922H65.9997V33H63.0003ZM63.0003 45V39H56.9997V44.9844L63.0003 45Z" fill="white"/>
</svg>
