<svg width="100" height="100" viewBox="0 0 100 100" fill="none" xmlns="http://www.w3.org/2000/svg">
<path d="M18.4438 84.2948L11.425 6.19791H88.575L81.5469 84.2824L49.9531 92.9687L18.4438 84.2948Z" fill="#1572B6"/>
<path d="M50 86.3308L75.5312 79.3117L81.5375 12.5849H50V86.3308Z" fill="#33A9DC"/>
<path d="M50 40.8783H62.7812L63.6625 31.0701H50V21.4913H74.2188L73.9875 24.0603L71.6156 50.4572H50V40.8783Z" fill="white"/>
<path d="M50.0594 65.7537L50.0156 65.7661L39.2594 62.8841L38.5719 55.2451H28.875L30.2281 70.2844L50.0125 75.7324L50.0594 75.72V65.7537Z" fill="#EBEBEB"/>
<path d="M61.9594 50.0512L60.7969 62.8778L50.025 65.7599V75.7261L69.825 70.2843L69.9719 68.6667L71.65 50.0512H61.9594Z" fill="white"/>
<path d="M50.0344 21.4913V31.0701H26.7031L26.5094 28.9164L26.0688 24.0603L25.8375 21.4913H50.0344ZM50 40.8783V50.4572H39.3781L39.1844 48.3034L38.7469 43.4474L38.5156 40.8783H50Z" fill="#EBEBEB"/>
</svg>
