<svg width="78" height="91" viewBox="0 0 78 91" fill="none" xmlns="http://www.w3.org/2000/svg">
<path d="M62.0804 44.2117C67.6769 44.5842 72.6847 40.7622 73.7824 35.2681C72.4316 33.1779 70.1225 31.921 67.6371 31.921C61.1761 31.7731 57.7095 39.4598 62.0832 44.2145L62.0804 44.2117ZM35.9833 13.357L51.2229 4.52998L46.3658 1.79145L25.3476 13.9655L27.0226 14.8983L30.2048 16.687L35.9833 13.3428V13.357ZM53.1766 3.71667C53.4297 3.79345 53.6344 4.00104 53.7112 4.25129L60.7751 25.8439C60.9088 26.2164 60.7609 26.6174 60.4196 26.8221C54.8231 30.1095 52.1273 36.744 53.8307 43.0116C55.6962 49.811 62.1828 54.2529 69.1898 53.542C69.5737 53.5107 69.9434 53.7496 70.0628 54.1193L77.3513 76.3091C77.4679 76.6816 77.32 77.0797 76.9958 77.2873L54.6468 90.8549C54.5416 90.9146 54.4079 90.9572 54.2743 90.9572C54.0809 91.0027 53.8762 90.9572 53.697 90.8406L45.834 85.7304C45.6975 85.6423 45.5951 85.5114 45.5241 85.3636L30.1792 48.6906L6.8064 62.5539C6.7609 62.5851 6.70118 62.6136 6.65852 62.6449C6.41965 62.7472 6.13811 62.7159 5.9163 62.5851L0.62977 59.4769C0.24302 59.2693 0.0951454 58.7802 0.302739 58.3934L22.9191 13.6072C22.9902 13.4451 23.1381 13.3115 23.303 13.2347L45.9364 0.127854C46.1867 -0.0200209 46.4966 -0.0342397 46.7668 0.113635L53.1766 3.71667ZM29.5109 18.2198L24.0168 15.1229L2.1398 58.4304L6.10968 60.7708L24.9666 35.1344C25.1457 34.8813 25.4415 34.7477 25.7372 34.7932C26.033 34.8244 26.2832 35.0121 26.4055 35.2965L46.9602 84.482L52.4571 88.0395L29.528 18.2198H29.5109ZM67.6342 48.2413C61.2187 48.2413 56.8649 41.7234 59.3219 35.797C61.7676 29.8735 69.4542 28.3492 73.9843 32.8822C75.6763 34.5685 76.6233 36.852 76.6233 39.2379C76.6375 44.2117 72.6079 48.2413 67.6342 48.2413Z" fill="white"/>
</svg>
