<svg width="47" height="69" viewBox="0 0 47 69" fill="none" xmlns="http://www.w3.org/2000/svg">
<path fill-rule="evenodd" clip-rule="evenodd" d="M23.5 34.5C23.5 28.2179 28.5929 23.125 34.875 23.125C41.1571 23.125 46.25 28.2179 46.25 34.5C46.25 40.7821 41.1571 45.875 34.875 45.875C28.5929 45.875 23.5 40.7821 23.5 34.5Z" fill="#1ABCFE"/>
<path fill-rule="evenodd" clip-rule="evenodd" d="M0.75 57.25C0.75 50.9679 5.84276 45.875 12.125 45.875H23.5V57.25C23.5 63.5321 18.4071 68.625 12.125 68.625C5.84276 68.625 0.75 63.5321 0.75 57.25Z" fill="#0ACF83"/>
<path fill-rule="evenodd" clip-rule="evenodd" d="M23.5 0.375V23.125H34.875C41.1571 23.125 46.25 18.0321 46.25 11.75C46.25 5.46776 41.1571 0.375 34.875 0.375H23.5Z" fill="#FF7262"/>
<path fill-rule="evenodd" clip-rule="evenodd" d="M0.75 11.75C0.75 18.0321 5.84276 23.125 12.125 23.125H23.5V0.375H12.125C5.84276 0.375 0.75 5.46776 0.75 11.75Z" fill="#F24E1E"/>
<path fill-rule="evenodd" clip-rule="evenodd" d="M0.75 34.5C0.75 40.7821 5.84276 45.875 12.125 45.875H23.5V23.125H12.125C5.84276 23.125 0.75 28.2179 0.75 34.5Z" fill="#A259FF"/>
</svg>
