<svg width="85" height="85" viewBox="0 0 85 85" fill="none" xmlns="http://www.w3.org/2000/svg">
<path d="M83.3971 38.7128L46.2852 1.60297C44.1493 -0.534322 40.6829 -0.534322 38.5443 1.60297L30.8378 9.30943L40.6138 19.0854C42.8856 18.3178 45.4907 18.8328 47.3016 20.6437C49.1211 22.4662 49.6325 25.0936 48.8462 27.3726L58.2676 36.7944C60.547 36.0091 63.177 36.5171 64.9976 38.3406C67.5419 40.884 67.5419 45.0062 64.9976 47.5512C62.4525 50.0966 58.3304 50.0966 55.784 47.5512C53.8702 45.6354 53.3974 42.8247 54.3662 40.467L45.58 31.6807L45.579 54.8024C46.2159 55.1174 46.7977 55.5334 47.3016 56.0343C49.846 58.5776 49.846 62.7002 47.3016 65.2472C44.7566 67.7912 40.6324 67.7912 38.091 65.2472C35.5467 62.7002 35.5467 58.578 38.091 56.0346C38.7008 55.4246 39.4254 54.9414 40.223 54.6132V31.276C39.4242 30.9499 38.6992 30.4665 38.091 29.8546C36.1633 27.9294 35.6997 25.1009 36.6875 22.7338L27.0506 13.0959L1.60371 38.5412C-0.534571 40.6805 -0.534571 44.1472 1.60371 46.2848L38.7162 83.3954C40.8529 85.533 44.3186 85.533 46.4579 83.3954L83.3968 46.4572C85.5344 44.3189 85.5344 40.8501 83.3968 38.7128" fill="#DE4C36"/>
</svg>
