<svg width="98" height="98" viewBox="0 0 98 98" fill="none" xmlns="http://www.w3.org/2000/svg">
<path d="M6.125 6.125H91.875V91.875H6.125V6.125Z" fill="#F5DE19"/>
<path d="M63.7276 73.1172C64.4582 74.6012 65.5933 75.8486 67.0021 76.7156C68.4109 77.5825 70.036 78.0337 71.6901 78.0172C75.0282 78.0172 77.1628 76.3481 77.1628 74.0359C77.1628 71.2797 74.97 70.2935 71.295 68.6857L69.2799 67.8221C63.4611 65.3445 59.6024 62.2422 59.6024 55.6823C59.6024 49.64 64.1961 45.0371 71.4022 45.0371C73.7349 44.8687 76.0656 45.3907 78.1036 46.5382C80.1415 47.6857 81.7965 49.4079 82.8621 51.4898L76.5625 55.517C76.1522 54.4847 75.4378 53.6015 74.514 52.9845C73.5902 52.3676 72.5007 52.046 71.39 52.0625C70.9054 52.014 70.416 52.0669 69.9529 52.218C69.4899 52.3691 69.0635 52.6149 68.7007 52.9399C68.338 53.2649 68.047 53.6619 67.8461 54.1056C67.6453 54.5493 67.5391 55.03 67.5343 55.517C67.5343 57.9333 69.0318 58.9133 72.4894 60.417L74.5045 61.2806C81.3523 64.2175 85.2233 67.2096 85.2233 73.9379C85.2233 81.193 79.524 85.1681 71.8708 85.1681C68.8888 85.3581 65.9156 84.6811 63.3099 83.2187C60.7042 81.7564 58.5774 79.5712 57.1861 76.9269L63.7276 73.1172ZM35.2616 73.8154C36.5265 76.0602 37.678 77.959 40.4465 77.959C43.0925 77.959 44.7646 76.9238 44.7646 72.8967V45.4965H52.822V73.0038C52.822 81.3461 47.922 85.1436 40.7895 85.1436C38.2683 85.2814 35.7644 84.6531 33.6069 83.3413C31.4495 82.0294 29.7395 80.0955 28.7018 77.7936L35.2616 73.8154Z" fill="black"/>
</svg>
