<svg width="60" height="56" viewBox="0 0 60 56" fill="none" xmlns="http://www.w3.org/2000/svg">
<path fill-rule="evenodd" clip-rule="evenodd" d="M60 55.2727H46.7392V36.0978C46.7392 31.0788 44.6649 27.6525 40.1035 27.6525C36.6146 27.6525 34.6742 29.9647 33.7711 32.193C33.4325 32.9928 33.4854 34.107 33.4854 35.2212V55.2727H20.3481C20.3481 55.2727 20.5174 21.3063 20.3481 18.2187H33.4854V24.0341C34.2615 21.4914 38.4595 17.8625 45.1587 17.8625C53.4701 17.8625 60 23.1923 60 34.6693V55.2727ZM7.06254 13.5839H6.9779C2.7446 13.5839 0 10.7513 0 7.16083C0 3.50048 2.82573 0.727295 7.14369 0.727295C11.4581 0.727295 14.111 3.49353 14.1957 7.15038C14.1957 10.7409 11.4581 13.5839 7.06254 13.5839ZM1.51337 18.2187H13.2079V55.2727H1.51337V18.2187Z" fill="#007EBB"/>
</svg>
