<svg width="20" height="20" viewBox="0 0 20 20" fill="none" xmlns="http://www.w3.org/2000/svg">
<path d="M16.5 19C7.93959 19 1 12.0604 1 3.5C1 3.11378 1.01413 2.73086 1.04189 2.35173C1.07375 1.91662 1.08968 1.69907 1.2037 1.50103C1.29814 1.33701 1.4655 1.18146 1.63598 1.09925C1.84181 1 2.08188 1 2.56201 1H5.37932C5.78308 1 5.98496 1 6.15802 1.06645C6.31089 1.12515 6.44701 1.22049 6.55442 1.3441C6.67601 1.48403 6.745 1.67376 6.88299 2.05321L8.0491 5.26005C8.2096 5.70153 8.2899 5.92227 8.2763 6.1317C8.2643 6.31637 8.2012 6.49408 8.0942 6.64506C7.97286 6.81628 7.77145 6.93713 7.36863 7.17882L6 8C7.2019 10.6489 9.3501 12.7999 12 14L12.8212 12.6314C13.0629 12.2285 13.1837 12.0271 13.3549 11.9058C13.5059 11.7988 13.6836 11.7357 13.8683 11.7237C14.0777 11.7101 14.2985 11.7904 14.74 11.9509L17.9468 13.117C18.3262 13.255 18.516 13.324 18.6559 13.4456C18.7795 13.553 18.8749 13.6891 18.9335 13.842C19 14.015 19 14.2169 19 14.6207V17.438C19 17.9181 19 18.1582 18.9007 18.364C18.8185 18.5345 18.663 18.7019 18.499 18.7963C18.3009 18.9103 18.0834 18.9262 17.6483 18.9581C17.2691 18.9859 16.8862 19 16.5 19Z" stroke="white" stroke-width="2" stroke-linecap="round" stroke-linejoin="round"/>
</svg>
