<svg width="81" height="81" viewBox="0 0 81 81" fill="none" xmlns="http://www.w3.org/2000/svg">
<path fill-rule="evenodd" clip-rule="evenodd" d="M32.0154 0.6875C25.7674 0.6875 20.7025 5.59163 20.7025 11.6412V19.2245H40.2825V21.331H12.0003C5.75242 21.331 0.6875 26.2352 0.6875 32.2847V48.7153C0.6875 54.7648 5.75242 59.6689 12.0003 59.6689H18.527V50.4005C18.527 44.351 23.5919 39.4467 29.8399 39.4467H50.725C56.0118 39.4467 60.2973 35.2971 60.2973 30.1783V11.6412C60.2973 5.59163 55.2326 0.6875 48.9846 0.6875H32.0154ZM29.4048 14.169C31.5675 14.169 33.3207 12.4714 33.3207 10.3773C33.3207 8.28324 31.5675 6.58564 29.4048 6.58564C27.2419 6.58564 25.4887 8.28324 25.4887 10.3773C25.4887 12.4714 27.2419 14.169 29.4048 14.169Z" fill="url(#paint0_linear_2_55)"/>
<path fill-rule="evenodd" clip-rule="evenodd" d="M48.984 80.3125C55.2321 80.3125 60.2971 75.4085 60.2971 69.3589V61.7755H40.717V59.6692H68.9992C75.2472 59.6692 80.3119 54.7648 80.3119 48.7153V32.2847C80.3119 26.2352 75.2472 21.3311 68.9992 21.3311H62.4725V30.5995C62.4725 36.6493 57.4075 41.5533 51.1598 41.5533H30.2744C24.9876 41.5533 20.7021 45.7029 20.7021 50.8217V69.3589C20.7021 75.4085 25.7671 80.3125 32.0148 80.3125H48.984ZM51.5949 66.8311C49.4319 66.8311 47.6788 68.5286 47.6788 70.6227C47.6788 72.7169 49.4319 74.4143 51.5949 74.4143C53.7576 74.4143 55.5107 72.7169 55.5107 70.6227C55.5107 68.5286 53.7576 66.8311 51.5949 66.8311Z" fill="url(#paint1_linear_2_55)"/>
<defs>
<linearGradient id="paint0_linear_2_55" x1="30.4926" y1="0.6875" x2="30.4926" y2="59.6689" gradientUnits="userSpaceOnUse">
<stop stop-color="#327EBD"/>
<stop offset="1" stop-color="#1565A7"/>
</linearGradient>
<linearGradient id="paint1_linear_2_55" x1="50.5072" y1="21.3311" x2="50.5072" y2="80.3125" gradientUnits="userSpaceOnUse">
<stop stop-color="#FFDA4B"/>
<stop offset="1" stop-color="#F9C600"/>
</linearGradient>
</defs>
</svg>
