<svg width="93" height="84" viewBox="0 0 93 84" fill="none" xmlns="http://www.w3.org/2000/svg">
<g clip-path="url(#clip0_2_48)">
<path d="M76.462 26.9146C75.4723 26.5739 74.4743 26.2582 73.4688 25.9678C73.6377 25.2751 73.7932 24.5908 73.9312 23.9185C76.1972 12.8787 74.7158 3.98484 69.6561 1.05655C64.8049 -1.75071 56.8711 1.17649 48.8585 8.17531C48.0688 8.8663 47.2967 9.57722 46.5428 10.3074C46.0381 9.82184 45.5245 9.34574 45.0022 8.87931C36.6046 1.39597 28.1874 -1.758 23.1331 1.17868C18.2862 3.99468 16.851 12.3556 18.891 22.8182C19.094 23.8545 19.3232 24.8853 19.5783 25.9099C18.3868 26.2497 17.2372 26.6113 16.1369 26.9963C6.2913 30.4416 0.00379181 35.8406 0.00379181 41.4409C0.00379181 47.2249 6.75372 53.0265 17.0083 56.5443C17.8397 56.8283 18.6779 57.0915 19.5224 57.3336C19.2481 58.4371 19.0046 59.548 18.7922 60.6651C16.8474 70.9463 18.3661 79.1095 23.1999 81.9077C28.1924 84.7973 36.5719 81.8275 44.7309 74.669C45.3925 74.087 46.0395 73.4885 46.6714 72.8741C47.4878 73.6647 48.326 74.4324 49.1851 75.1761C57.0887 82.0017 64.8942 84.7579 69.7233 81.9521C74.7111 79.0541 76.3323 70.2845 74.2276 59.6152C74.0618 58.7793 73.8759 57.9476 73.67 57.1207C74.2585 56.9457 74.8361 56.7656 75.3991 56.5782C86.0598 53.0334 92.9961 47.3022 92.9961 41.4409C92.9961 35.8202 86.5055 30.3847 76.462 26.9146ZM74.1499 52.7939C73.6413 52.9627 73.1197 53.1257 72.5879 53.2842C71.411 49.5448 69.8228 45.5687 67.8791 41.4602C69.7338 37.4499 71.2609 33.5244 72.4048 29.8094C73.3562 30.0857 74.2792 30.377 75.1692 30.6844C83.7746 33.6579 89.0236 38.0536 89.0236 41.4409C89.0236 45.0488 83.3547 49.7325 74.1499 52.7939ZM70.3307 60.3895C71.2613 65.1072 71.3939 69.3727 70.7775 72.7075C70.2239 75.704 69.1101 77.7015 67.7327 78.5018C64.8023 80.2044 58.5352 77.9914 51.7761 72.1537C50.9771 71.4623 50.1974 70.7486 49.4379 70.0137C52.0584 67.1375 54.6771 63.7939 57.2329 60.0804C61.7285 59.68 65.9756 59.0253 69.8272 58.1317C70.0127 58.8802 70.1806 59.633 70.3307 60.3895ZM31.7069 78.2076C28.8438 79.2222 26.5633 79.2514 25.1847 78.4537C22.2515 76.7558 21.032 70.201 22.6954 61.4089C22.8931 60.3699 23.1195 59.3367 23.3743 58.3103C27.1833 59.1561 31.3996 59.7643 35.9057 60.131C38.479 63.7648 41.1732 67.1047 43.8885 70.0293C43.3115 70.5897 42.7208 71.1358 42.1169 71.667C38.5088 74.8323 34.8933 77.0781 31.7069 78.2076ZM18.2935 52.7716C13.759 51.216 10.0143 49.1944 7.44753 46.9883C5.14089 45.0061 3.97667 43.0378 3.97667 41.4409C3.97667 38.0423 9.02477 33.7075 17.4446 30.7613C18.4664 30.404 19.5358 30.0668 20.6455 29.7503C21.8094 33.5492 23.3358 37.5213 25.1778 41.5379C23.3118 45.6139 21.7636 49.6494 20.5885 53.4931C19.8177 53.2716 19.0525 53.031 18.2935 52.7716ZM22.7898 22.0523C21.0422 13.0884 22.2028 6.32653 25.1237 4.62942C28.2346 2.82184 35.1138 5.39904 42.3647 11.8608C42.8375 12.2832 43.3027 12.714 43.7599 13.1533C41.0581 16.0651 38.3885 19.3803 35.8382 22.9925C31.4646 23.3994 27.2781 24.0527 23.4291 24.9281C23.192 23.9751 22.9788 23.0163 22.7898 22.0526V22.0523ZM62.9025 31.9936C61.9934 30.4175 61.0505 28.8612 60.0746 27.3259C63.0417 27.7025 65.8845 28.2023 68.554 28.8134C67.7527 31.3917 66.7537 34.087 65.5779 36.8505C64.7184 35.2138 63.8264 33.5945 62.9025 31.9936ZM46.5446 16.0028C48.3769 17.9952 50.212 20.2195 52.017 22.633C48.3554 22.4595 44.6877 22.4587 41.0261 22.6308C42.8329 20.2396 44.6837 18.0182 46.5446 16.0028ZM30.0817 32.0209C29.1693 33.609 28.294 35.2182 27.4565 36.8472C26.2999 34.0936 25.31 31.3858 24.5018 28.7711C27.155 28.1754 29.9844 27.6883 32.9325 27.3186C31.9457 28.8633 30.9952 30.4311 30.0817 32.0206V32.0209ZM33.0171 55.8469C29.9713 55.5056 27.0994 55.0437 24.447 54.464C25.2679 51.8026 26.2796 49.0373 27.4612 46.2245C28.3021 47.8548 29.181 49.465 30.0973 51.0538C31.0396 52.6871 32.0153 54.2868 33.0171 55.8469ZM46.6543 67.1597C44.7712 65.121 42.8932 62.8654 41.0592 60.4395C42.8398 60.5095 44.655 60.5452 46.4999 60.5452C48.3954 60.5452 50.269 60.5025 52.1133 60.4201C50.3024 62.8898 48.4742 65.1487 46.6543 67.1597ZM65.6153 46.0809C66.8583 48.9246 67.906 51.6754 68.7378 54.2912C66.0417 54.9088 63.1307 55.4061 60.0634 55.7754C61.0462 54.2116 61.998 52.6283 62.9182 51.0264C63.8536 49.3982 64.7529 47.7493 65.6153 46.0809ZM59.4771 49.0344C58.0685 51.4903 56.5806 53.8996 55.016 56.2585C52.1818 56.4599 49.3413 56.56 46.4999 56.5585C43.6059 56.5585 40.7911 56.4681 38.0805 56.2916C36.475 53.9382 34.9588 51.5247 33.5351 49.0562H33.5355C32.1185 46.6008 30.795 44.0923 29.5677 41.5361C30.7919 38.9792 32.1114 36.4695 33.5235 34.0123L33.5232 34.0126C34.9347 31.5547 36.4388 29.1515 38.0322 26.8082C40.7976 26.5982 43.6335 26.4888 46.4996 26.4888H46.4999C49.3791 26.4888 52.2186 26.5993 54.9833 26.8107C56.5606 29.1505 58.0551 31.5455 59.464 33.9911C60.8808 36.443 62.2178 38.9404 63.4728 41.4796C62.2307 44.0446 60.8979 46.5645 59.4771 49.0344ZM67.672 4.51056C70.7858 6.31304 71.9969 13.5816 70.0404 23.1135C69.9155 23.7217 69.7752 24.3411 69.6227 24.9692C65.7642 24.0753 61.5749 23.4107 57.1886 22.9976C54.6335 19.3456 51.9858 16.0254 49.3278 13.1511C50.0244 12.4772 50.7376 11.8207 51.4667 11.1824C58.3321 5.18613 64.7486 2.81855 67.672 4.51056ZM46.4999 33.1066C51.086 33.1066 54.8039 36.8381 54.8039 41.4409C54.8039 46.0437 51.086 49.7752 46.4999 49.7752C41.9139 49.7752 38.196 46.0437 38.196 41.4409C38.196 36.8381 41.9139 33.1066 46.4999 33.1066Z" fill="#00D8FF"/>
</g>
<defs>
<clipPath id="clip0_2_48">
<rect width="93" height="83.1239" fill="white"/>
</clipPath>
</defs>
</svg>
