<svg width="95" height="57" viewBox="0 0 95 57" fill="none" xmlns="http://www.w3.org/2000/svg">
<path d="M23.75 19C26.9167 6.33333 34.8333 0 47.5 0C66.5 0 68.875 14.25 78.375 16.625C84.7083 18.2083 90.25 15.8333 95 9.5C91.8333 22.1667 83.9167 28.5 71.25 28.5C52.25 28.5 49.875 14.25 40.375 11.875C34.0417 10.2917 28.5 12.6667 23.75 19ZM0 47.5C3.16667 34.8333 11.0833 28.5 23.75 28.5C42.75 28.5 45.125 42.75 54.625 45.125C60.9583 46.7083 66.5 44.3333 71.25 38C68.0833 50.6667 60.1667 57 47.5 57C28.5 57 26.125 42.75 16.625 40.375C10.2917 38.7917 4.75 41.1667 0 47.5Z" fill="#44A8B3"/>
</svg>
